<svg xmlns="http://www.w3.org/2000/svg" viewBox="0 0 915 974"><path fill="#fff" d="M82 83C44 101 0 141 0 229l3 43 1 7a1011 1011 0 0 0 294 596c1 1 70 69 104 86 24 13 49 13 55 13h-1 2-1c6 0 31 0 55-13 34-17 103-85 104-86 92-93 149-175 211-305 61-128 77-251 83-291l1-7c16-116-34-167-78-189A847 847 0 0 0 457 0Q252 0 82 83"/><path fill="#e51e23" d="M622 423c-243 38-360 102-417 163-44 46-29 82-17 103a939 939 0 0 0 228 244c20 9 40 9 41 9s21 0 41-9a971 971 0 0 0 356-532v-1c-53 1-128 6-232 23M177 201h-4l-15 67h5q12 0 17-7 7-8 10-26 4-18 1-26-2-8-14-8m642-89a823 823 0 0 0-362-80c-116 0-242 22-362 80q-63 32-63 117l3 39 1 7c3 28 13 98 40 182 32-41 158-75 381-87 210-11 361-10 407-10q12-60 14-85l1-7q17-118-60-156M240 236c-8 37-37 61-75 61h-61l26-124h59c49 0 59 26 51 63m58 64q-58 0-50-45l18-82h49l-17 80q-2 15 7 14 8 0 12-14l17-80h49l-17 82q-11 45-68 45m134 0c-43 0-58-27-50-66s36-65 78-65c31 0 55 13 47 49h-45c3-14-2-16-8-16-13 0-17 13-21 33-4 18-6 33 6 33q11 1 15-17h46c-7 34-37 49-68 49m148-3v-20h-36l-9 20h-47l66-124h63l14 124zm115 0h-49l19-91h-30l7-33h110l-8 33h-30zm88 0h-48l26-124h49zm-225-50h21v-47z"/></svg>