<svg xmlns="http://www.w3.org/2000/svg" viewBox="0 0 960 960"><path d="M869 437q-5-24 7-46c-25 0-48 17-72 24-24 8-57-2-58-27q-39 32-87 37-13 3-25-4-6-9-9-20c-7-50 21-104 65-127-20 2-24-29-13-47 11-16 29-29 35-49-29 7-56-19-63-49-6-29 3-61 12-91-20 27-41 55-71 70-28 16-68 12-85-15 3 23-1 50-15 70-15 19-43 29-64 18 6 25 11 54 0 79-10 26-42 45-63 31-20-13-19-44-15-68l-31 3q-9-48-2-97c-60 23-132-22-138-86-5 26 5 50 5 76 0 25-21 56-44 49 4 17 9 35 4 53-5 17-25 33-41 26q24 44 34 95 5 15-3 28-11 12-28 10c-36-1-71-18-94-46 9 32 21 57 26 89 3 19-5 54-23 55 46 18 5 33 5 33s41 51-18 71c67 66 209 171 305 149l-10 30-14 42q-7 18-11 37-4 21 1 40a60 60 0 0 0 42 41c8 1 17-2 19-11 2-8-2-18-11-20l-4-1h-3l-1-1-4-3-3-2-2-3h-1v-2l-2-4-1-2h-1v-3l-3-8v-2l1-18v-3l6-23 11-41q5-23 13-46l6-6c37 79 245 199 330 183-32-36-8-71 55-62l-27-16c20-53 96-43 126-92l-66 6c-14 1-28 2-38-8-15-14-2-43 17-53 19-9 41-5 61-2 21 3 44 5 62-8-20-27-5-76 28-88-21-4-32-32-24-54s27-38 46-49c20-12 41-22 57-39q-46 3-92-3z"/></svg>